Coordinates
version=1
nRows=4
nColumns=63
inDegrees=yes

Units are S.I. units (second, meters, Newtons, ...)
If the header above contains a line with 'inDegrees', this indicates whether rotational values are in degrees (yes) or radians (no).

endheader
time	pelvis_tilt	pelvis_list	pelvis_rotation	pelvis_tx	pelvis_ty	pelvis_tz	hip_flexion_r	hip_adduction_r	hip_rotation_r	knee_angle_r	knee_angle_r_beta	ankle_angle_r	subtalar_angle_r	mtp_angle_r	hip_flexion_l	hip_adduction_l	hip_rotation_l	knee_angle_l	knee_angle_l_beta	ankle_angle_l	subtalar_angle_l	mtp_angle_l	L5_S1_Flex_Ext	L5_S1_Lat_Bending	L5_S1_axial_rotation	L4_L5_Flex_Ext	L4_L5_Lat_Bending	L4_L5_axial_rotation	L3_L4_Flex_Ext	L3_L4_Lat_Bending	L3_L4_axial_rotation	L2_L3_Flex_Ext	L2_L3_Lat_Bending	L2_L3_axial_rotation	L1_L2_Flex_Ext	L1_L2_Lat_Bending	L1_L2_axial_rotation	L1_T12_Flex_Ext	L1_T12_Lat_Bending	L1_T12_axial_rotation	Abs_r3	Abs_r2	Abs_r1	Abs_t1	Abs_t2	neck_flexion	neck_bending	neck_rotation	arm_flex_r	arm_add_r	arm_rot_r	elbow_flex_r	pro_sup_r	wrist_flex_r	wrist_dev_r	arm_flex_l	arm_add_l	arm_rot_l	elbow_flex_l	pro_sup_l	wrist_flex_l	wrist_dev_l
      2.11666667	      2.61904305	    -18.47692110	    107.95912649	      0.19844830	      0.35179170	      0.67697057	     13.84370076	     -0.90851414	     -8.84454742	     17.19345931	      0.30008247	     16.51976583	     -9.23173988	      0.00000000	     13.15764707	      0.71431147	     -8.33158203	     11.65290021	      0.20338148	     23.28411937	      7.95456949	      0.00000000	      0.16938155	     -0.11694794	     -0.78657904	      0.31455847	     -0.15554076	     -0.83574023	      0.27827694	     -0.28434723	     -0.83574023	      0.19358617	     -0.28434723	     -0.68825666	      0.15728770	     -0.23848024	     -0.63909547	      0.09678462	     -0.18115236	     -0.58993428	      1.20987545	     -1.32293851	     -4.37471666	      0.00000000	      0.00000000	     16.47441788	     -0.75006876	      8.86100616	     -1.77859193	    -25.08388022	     31.93441603	    111.18971188	     89.12534795	     -0.59927624	      9.44385595	     -2.68892202	    -11.05855251	     -2.64143803	     93.89575203	     87.43675014	    -11.82776171	     11.84035769
      2.13333333	      3.04798998	    -18.33436631	    109.65666651	      0.19420080	      0.35164434	      0.67678697	     14.49314513	     -0.83855896	     -8.73716217	     18.22317965	      0.31805449	     17.29171496	    -10.18337817	      0.00000000	     12.48703045	      0.82716244	     -7.43252517	     10.21701963	      0.17832063	     22.85032440	      9.23443684	      0.00000000	      0.16975385	     -0.09607544	     -1.20328848	      0.31524988	     -0.12778034	     -1.27849402	      0.27888861	     -0.23359783	     -1.27849402	      0.19401168	     -0.23359783	     -1.05287742	      0.15763343	     -0.19591704	     -0.97767189	      0.09699735	     -0.14882086	     -0.90246636	      1.21253480	     -1.08682463	     -6.69232957	      0.00000000	      0.00000000	     16.64363916	     -0.07896212	      8.41004070	     -2.30656435	    -24.78514262	     31.03085410	    113.49012551	     89.18290276	      0.77793176	     10.49767343	     -1.62855896	    -10.47302787	     -1.75903022	     86.89702766	     86.92311206	    -14.38253252	      8.49607486
      2.15000000	      3.53291898	    -18.17758853	    111.10001998	      0.19038188	      0.35122345	      0.67695619	     15.34378605	     -0.70956878	     -8.51619633	     19.46886419	      0.33979578	     18.29497090	    -11.00733405	      0.00000000	     11.97377789	      0.80839163	     -6.48400507	      9.04461566	      0.15785832	     22.61347327	     10.03442811	      0.00000000	      0.16482253	     -0.06022543	     -1.54496672	      0.30609192	     -0.08009982	     -1.64152714	      0.27078694	     -0.14643210	     -1.64152714	      0.18837567	     -0.14643210	     -1.35184588	      0.15305420	     -0.12281169	     -1.25528546	      0.09417959	     -0.09328919	     -1.15872504	      1.17731085	     -0.68128208	     -8.59264139	      0.00000000	      0.00000000	     16.69051907	      0.42583141	      8.12564260	     -2.82574157	    -24.50938103	     29.92557863	    115.69617398	     89.23265768	      1.37632050	      9.58651832	     -0.17350380	     -9.88060368	     -0.56821550	     79.61240724	     86.08780024	    -16.63851450	      5.02749804
      2.16666667	      3.98015543	    -17.96838476	    112.63512896	      0.18662317	      0.35066357	      0.67720317	     16.10725754	     -0.62220598	     -8.40717824	     20.67071969	      0.36077212	     19.35059574	    -12.07466181	      0.00000000	     11.50315385	      0.76373118	     -5.43276442	      8.08612821	      0.14112956	     22.39588494	     10.67811454	      0.00000000	      0.15382776	     -0.02256917	     -1.88006217	      0.28567353	     -0.03001700	     -1.99756606	      0.25272363	     -0.05487468	     -1.99756606	      0.17580975	     -0.05487468	     -1.64505440	      0.14284446	     -0.04602306	     -1.52755051	      0.08789718	     -0.03495965	     -1.41004663	      1.09877630	     -0.25530699	    -10.45634178	      0.00000000	      0.00000000	     16.58040498	      0.81962329	      8.09266967	     -3.30335364	    -24.08798860	     28.74205648	    117.74366400	     89.27883691	      0.76544160	      7.37286202	      1.36729237	     -9.36175130	      0.57429604	     72.47137017	     85.70591217	    -17.17633903	      3.25135944
